<svg version="1.1" xmlns="http://www.w3.org/2000/svg" xmlns:xlink="http://www.w3.org/1999/xlink" width="180" height="180" viewBox="0,0,180,180"><g transform="translate(-150,-90)"><g data-paper-data="{&quot;isPaintingLayer&quot;:true}" fill="none" fill-rule="nonzero" stroke="#ffc500" stroke-linecap="butt" stroke-linejoin="miter" stroke-miterlimit="10" stroke-dasharray="" stroke-dashoffset="0" style="mix-blend-mode: normal"><path d="M294.5,180c0,30.09952 -24.40048,54.5 -54.5,54.5c-30.09952,0 -54.5,-24.40048 -54.5,-54.5c0,-30.09952 24.40048,-54.5 54.5,-54.5c30.09952,0 54.5,24.40048 54.5,54.5z" stroke-width="20.5"></path><path d="M302,180c0,34.24166 -27.75834,62 -62,62c-34.24166,0 -62,-27.75834 -62,-62c0,-34.24166 27.75834,-62 62,-62c34.24166,0 62,27.75834 62,62z" stroke-width="20.5"></path><path d="M310,180c0,38.65994 -31.34006,70 -70,70c-38.65994,0 -70,-31.34006 -70,-70c0,-38.65994 31.34006,-70 70,-70c38.65994,0 70,31.34006 70,70z" stroke-width="40"></path></g></g></svg>