<svg version="1.1" xmlns="http://www.w3.org/2000/svg" xmlns:xlink="http://www.w3.org/1999/xlink" width="36.85607" height="26.82609" viewBox="0,0,36.85607,26.82609"><g transform="translate(-240.20975,-180.10307)"><g data-paper-data="{&quot;isPaintingLayer&quot;:true}" stroke-miterlimit="10" stroke-dasharray="" stroke-dashoffset="0" style="mix-blend-mode: normal"><g fill-rule="evenodd"><path d="M266.83965,189.80231c0.08698,-0.05799 0.23196,-0.02899 0.26095,0.08698l0.75386,3.10241c0,0 1.85565,1.36274 2.40654,2.31956c0.92782,1.5947 0.95682,2.89945 0.95682,2.89945c0,0 2.05861,0.60888 2.40654,2.26157c0.34793,1.65268 -0.92782,4.78409 -6.37878,5.85688c-5.45096,1.0728 -9.82912,-0.40592 -11.88773,-3.71129c-2.05861,-3.30537 1.18877,-7.24862 1.01481,-7.01666l-0.60888,-5.19001c-0.02899,-0.11598 0.11598,-0.20296 0.23196,-0.14497l3.50833,2.29056c0,0 1.30475,-0.49291 2.66749,-0.55089c0.81185,-0.05799 1.50771,0 2.17458,0.11598z" fill="#ffab19" stroke="#001026" stroke-width="1.2" stroke-linecap="butt" stroke-linejoin="miter"/><path d="M271.13083,198.32668c0,0 2.00062,0.5219 2.34855,2.17458c0.34793,1.65268 -1.0438,4.63911 -6.43677,5.68292c-7.01666,1.44972 -10.35102,-2.72548 -8.4084,-5.79889c1.94263,-3.10241 5.27699,-0.46391 7.71253,-0.63788c2.0876,-0.14497 2.31956,-1.97162 4.78409,-1.42073z" fill="#ffffff" stroke="none" stroke-width="1" stroke-linecap="butt" stroke-linejoin="miter"/><path d="M261.99758,201.42909c0,-0.11598 0.11598,-0.20296 0.23196,-0.17397c0.55089,0.20296 2.1166,0.66687 3.85626,0.78285c1.5657,0.08698 2.49352,0 2.92844,-0.08698c0.14497,-0.02899 0.26095,0.11598 0.20296,0.26095c-0.26095,0.78285 -1.36274,2.95744 -4.40716,2.78347c-2.6385,-0.28994 -2.89945,-2.14559 -2.81246,-3.56632z" fill="#ffffff" stroke="#001026" stroke-width="1.2" stroke-linecap="round" stroke-linejoin="round"/><path d="M276.46582,198.64562c-1.36274,1.10179 -3.45034,1.13078 -3.45034,1.13078" fill="none" stroke="#001026" stroke-width="1.2" stroke-linecap="round" stroke-linejoin="round"/><path d="M276.08889,201.893c-1.82665,0.14497 -2.95744,-0.40592 -2.95744,-0.40592" fill="none" stroke="#001026" stroke-width="1.2" stroke-linecap="round" stroke-linejoin="round"/><path d="M266.23077,198.99356c0.60888,0 1.24676,0.05799 1.27576,0.26095c0.02899,0.40592 -0.40592,1.21777 -0.86983,1.24676c-0.5219,0.05799 -1.73967,-0.66687 -1.73967,-1.13078c-0.02899,-0.34793 0.75386,-0.37693 1.33375,-0.37693z" fill="#001026" stroke="#001026" stroke-width="1.2" stroke-linecap="round" stroke-linejoin="round"/><path d="M253.18326,198.55864c0,0 2.49352,0.81185 3.50833,1.71067" fill="none" stroke="#001026" stroke-width="1.2" stroke-linecap="round" stroke-linejoin="round"/><path d="M256.77857,201.28412c-1.24676,0.49291 -3.39235,0.17397 -3.39235,0.17397" fill="none" stroke="#001026" stroke-width="1.2" stroke-linecap="round" stroke-linejoin="round"/><g><path d="M269.65212,195.6012c0.84084,1.30475 0.86983,2.78347 0.05799,3.30537c-0.81185,0.5219 -2.14559,-0.08698 -3.01542,-1.39173c-0.84084,-1.30475 -0.86983,-2.78347 -0.05799,-3.30537c0.81185,-0.55089 2.17458,0.08698 3.01542,1.39173z" fill="#ffffff" stroke="#001026" stroke-width="1.2" stroke-linecap="round" stroke-linejoin="round"/><path d="M269.53614,197.25389c0,0.31894 -0.23196,0.57989 -0.5219,0.57989c-0.28994,0 -0.5219,-0.26095 -0.5219,-0.57989c0,-0.31894 0.23196,-0.57989 0.5219,-0.57989c0.28994,0 0.5219,0.26095 0.5219,0.57989" fill="#001026" stroke="none" stroke-width="1" stroke-linecap="butt" stroke-linejoin="miter"/></g><g><path d="M262.46149,196.41305c0.86983,1.27576 0.81185,2.84146 0.02899,3.39235c-0.95682,0.55089 -2.23257,0.14497 -3.10241,-1.13078c-0.89883,-1.27576 -0.95682,-2.92844 -0.05799,-3.56632c0.89883,-0.66687 2.26157,0.02899 3.1314,1.30475z" fill="#ffffff" stroke="#001026" stroke-width="1.2" stroke-linecap="round" stroke-linejoin="round"/><path d="M262.28752,198.09473c0,0.31894 -0.23196,0.57989 -0.5219,0.57989c-0.28994,0 -0.5219,-0.26095 -0.5219,-0.57989c0,-0.31894 0.23196,-0.57989 0.5219,-0.57989c0.28994,0.02899 0.5219,0.26095 0.5219,0.57989" fill="#001026" stroke="none" stroke-width="1" stroke-linecap="butt" stroke-linejoin="miter"/></g></g><path d="M244.95554,191.40185l-4.32432,-10.91376l12.56112,3.70656z" fill="#ffffff" fill-rule="nonzero" stroke="#ffffff" stroke-width="0.5" stroke-linecap="round" stroke-linejoin="miter"/></g></g></svg>