<svg version="1.1" xmlns="http://www.w3.org/2000/svg" xmlns:xlink="http://www.w3.org/1999/xlink" width="90" height="90" viewBox="0,0,90,90"><g transform="translate(-195,-135)"><g data-paper-data="{&quot;isPaintingLayer&quot;:true}" fill="none" fill-rule="nonzero" stroke-width="10" stroke-linecap="butt" stroke-linejoin="miter" stroke-miterlimit="10" stroke-dasharray="" stroke-dashoffset="0" style="mix-blend-mode: normal"><path d="M264,180c0,13.25483 -10.74517,24 -24,24c-13.25483,0 -24,-10.74517 -24,-24c0,-13.25483 10.74517,-24 24,-24c13.25483,0 24,10.74517 24,24z" stroke="#ffc500"></path><path d="M271,180c0,17.12083 -13.87917,31 -31,31c-17.12083,0 -31,-13.87917 -31,-31c0,-17.12083 13.87917,-31 31,-31c17.12083,0 31,13.87917 31,31z" stroke="#ffc500"></path><path d="M280,180c0,22.09139 -17.90861,40 -40,40c-22.09139,0 -40,-17.90861 -40,-40c0,-22.09139 17.90861,-40 40,-40c22.09139,0 40,17.90861 40,40z" stroke="#ffc500"></path></g></g></svg>