<svg version="1.1" xmlns="http://www.w3.org/2000/svg" xmlns:xlink="http://www.w3.org/1999/xlink" width="175" height="175" viewBox="0,0,175,175"><g transform="translate(-152.5,-92.5)"><g data-paper-data="{&quot;isPaintingLayer&quot;:true}" fill="none" fill-rule="nonzero" stroke="#ffc500" stroke-linecap="butt" stroke-linejoin="miter" stroke-miterlimit="10" stroke-dasharray="" stroke-dashoffset="0" style="mix-blend-mode: normal"><path d="M280,180c0,22.09139 -17.90861,40 -40,40c-22.09139,0 -40,-17.90861 -40,-40c0,-22.09139 17.90861,-40 40,-40c22.09139,0 40,17.90861 40,40z" stroke-width="10"></path><path d="M294.5,180c0,30.09952 -24.40048,54.5 -54.5,54.5c-30.09952,0 -54.5,-24.40048 -54.5,-54.5c0,-30.09952 24.40048,-54.5 54.5,-54.5c30.09952,0 54.5,24.40048 54.5,54.5z" stroke-width="20.5"></path><path d="M302,180c0,34.24166 -27.75834,62 -62,62c-34.24166,0 -62,-27.75834 -62,-62c0,-34.24166 27.75834,-62 62,-62c34.24166,0 62,27.75834 62,62z" stroke-width="20.5"></path><path d="M310,180c0,38.65994 -31.34006,70 -70,70c-38.65994,0 -70,-31.34006 -70,-70c0,-38.65994 31.34006,-70 70,-70c38.65994,0 70,31.34006 70,70z" stroke-width="35"></path></g></g></svg>