<svg version="1.1" xmlns="http://www.w3.org/2000/svg" xmlns:xlink="http://www.w3.org/1999/xlink" width="115" height="63" viewBox="0,0,115,63"><defs><radialGradient cx="208" cy="177" r="31" gradientUnits="userSpaceOnUse" id="color-1"><stop offset="0" stop-color="#ffffff"></stop><stop offset="1" stop-color="#ff7b7b"></stop></radialGradient><radialGradient cx="261" cy="178" r="31" gradientUnits="userSpaceOnUse" id="color-2"><stop offset="0" stop-color="#ffffff"></stop><stop offset="1" stop-color="#ff7b7b"></stop></radialGradient></defs><g transform="translate(-177,-146)"><g data-paper-data="{&quot;isPaintingLayer&quot;:true}" fill-rule="nonzero" stroke="none" stroke-linecap="butt" stroke-linejoin="miter" stroke-miterlimit="10" stroke-dasharray="" stroke-dashoffset="0" style="mix-blend-mode: normal"><path d="M239,177c0,17.12083 -13.87917,31 -31,31c-17.12083,0 -31,-13.87917 -31,-31c0,-17.12083 13.87917,-31 31,-31c17.12083,0 31,13.87917 31,31z" fill="url(#color-1)" stroke-width="0.5"></path><text transform="translate(202.27405,181.37652) scale(0.36471,0.36471)" font-size="40" xml:space="preserve" fill="#000000" fill-rule="nonzero" stroke="none" stroke-width="1" stroke-linecap="butt" stroke-linejoin="miter" stroke-miterlimit="10" stroke-dasharray="" stroke-dashoffset="0" font-family="Sans Serif" font-weight="normal" text-anchor="start" style="mix-blend-mode: normal"><tspan x="0" dy="0">O</tspan></text><path d="M292,178c0,17.12083 -13.87917,31 -31,31c-17.12083,0 -31,-13.87917 -31,-31c0,-17.12083 13.87917,-31 31,-31c17.12083,0 31,13.87917 31,31z" fill="url(#color-2)" stroke-width="0.5"></path><text transform="translate(255.27405,182.37652) scale(0.36471,0.36471)" font-size="40" xml:space="preserve" fill="#000000" fill-rule="nonzero" stroke="none" stroke-width="1" stroke-linecap="butt" stroke-linejoin="miter" stroke-miterlimit="10" stroke-dasharray="" stroke-dashoffset="0" font-family="Sans Serif" font-weight="normal" text-anchor="start" style="mix-blend-mode: normal"><tspan x="0" dy="0">O</tspan></text></g></g></svg>