<svg version="1.1" xmlns="http://www.w3.org/2000/svg" xmlns:xlink="http://www.w3.org/1999/xlink" width="129.5" height="129.5" viewBox="0,0,129.5,129.5"><g transform="translate(-175.25,-115.25)"><g data-paper-data="{&quot;isPaintingLayer&quot;:true}" fill="none" fill-rule="nonzero" stroke="#ffc500" stroke-linecap="butt" stroke-linejoin="miter" stroke-miterlimit="10" stroke-dasharray="" stroke-dashoffset="0" style="mix-blend-mode: normal"><path d="M271,180c0,17.12083 -13.87917,31 -31,31c-17.12083,0 -31,-13.87917 -31,-31c0,-17.12083 13.87917,-31 31,-31c17.12083,0 31,13.87917 31,31z" stroke-width="10"></path><path d="M280,180c0,22.09139 -17.90861,40 -40,40c-22.09139,0 -40,-17.90861 -40,-40c0,-22.09139 17.90861,-40 40,-40c22.09139,0 40,17.90861 40,40z" stroke-width="10"></path><path d="M294.5,180c0,30.09952 -24.40048,54.5 -54.5,54.5c-30.09952,0 -54.5,-24.40048 -54.5,-54.5c0,-30.09952 24.40048,-54.5 54.5,-54.5c30.09952,0 54.5,24.40048 54.5,54.5z" stroke-width="20.5"></path></g></g></svg>